<?xml version="1.0" encoding="UTF-8" standalone="no"?>
<!-- Created with Inkscape (http://www.inkscape.org/) -->

<svg
   xmlns:dc="http://purl.org/dc/elements/1.1/"
   xmlns:cc="http://creativecommons.org/ns#"
   xmlns:rdf="http://www.w3.org/1999/02/22-rdf-syntax-ns#"
   xmlns:svg="http://www.w3.org/2000/svg"
   xmlns="http://www.w3.org/2000/svg"
   xmlns:sodipodi="http://sodipodi.sourceforge.net/DTD/sodipodi-0.dtd"
   xmlns:inkscape="http://www.inkscape.org/namespaces/inkscape"
   width="300"
   height="300"
   id="svg2"
   version="1.1"
   inkscape:version="0.48.5 r10040"
   sodipodi:docname="Documento nuevo 1">
  <defs
     id="defs4" />
  <sodipodi:namedview
     id="base"
     pagecolor="#ffffff"
     bordercolor="#666666"
     borderopacity="1.0"
     inkscape:pageopacity="0.0"
     inkscape:pageshadow="2"
     inkscape:zoom="1.4"
     inkscape:cx="194.20454"
     inkscape:cy="132.63434"
     inkscape:document-units="px"
     inkscape:current-layer="layer1"
     showgrid="false"
     fit-margin-top="0"
     fit-margin-left="0"
     fit-margin-right="0"
     fit-margin-bottom="0"
     inkscape:window-width="1680"
     inkscape:window-height="973"
     inkscape:window-x="0"
     inkscape:window-y="24"
     inkscape:window-maximized="1" />
  <metadata
     id="metadata7">
    <rdf:RDF>
      <cc:Work
         rdf:about="">
        <dc:format>image/svg+xml</dc:format>
        <dc:type
           rdf:resource="http://purl.org/dc/dcmitype/StillImage" />
        <dc:title></dc:title>
      </cc:Work>
    </rdf:RDF>
  </metadata>
  <g
     inkscape:label="Capa 1"
     inkscape:groupmode="layer"
     id="layer1"
     transform="translate(-23.787486,-723.08116)">
    <path
       style="font-size:medium;font-style:normal;font-variant:normal;font-weight:normal;font-stretch:normal;text-indent:0;text-align:start;text-decoration:none;line-height:normal;letter-spacing:normal;word-spacing:normal;text-transform:none;direction:ltr;block-progression:tb;writing-mode:lr-tb;text-anchor:start;baseline-shift:baseline;color:#000000;fill:#ffffff;fill-opacity:1;stroke:none;stroke-width:3;marker:none;visibility:visible;display:inline;overflow:visible;enable-background:accumulate;font-family:Sans;-inkscape-font-specification:Sans"
       d="m 178.0625,753.4375 -0.40625,0.125 -54.1875,16.25 c -14.89704,4.47516 -28.457991,8.57769 -38.3125,11.5625 -4.927254,1.4924 -8.910998,2.71228 -11.6875,3.5625 -1.388251,0.42511 -2.476348,0.76816 -3.21875,1 -0.371201,0.11592 -0.672916,0.18454 -0.875,0.25 -0.101042,0.0327 -0.181718,0.0701 -0.25,0.0937 -0.03414,0.0118 -0.0498,0.0143 -0.09375,0.0312 -0.02198,0.008 -0.0449,0.009 -0.09375,0.0312 -0.02442,0.0111 -0.06983,0.0321 -0.125,0.0625 -0.05517,0.0304 -0.312086,0.24959 -0.3125,0.25 -0.385239,0.38519 -0.373326,0.54443 -0.40625,0.65625 -0.03292,0.11182 -0.02243,0.19363 -0.03125,0.25 -0.01764,0.11275 -0.02584,0.16631 -0.03125,0.25 -0.01083,0.16738 -0.02904,0.36997 -0.03125,0.59375 -0.0044,0.44755 0.01474,1.04986 0.03125,1.78125 0.03302,1.46277 0.08449,3.44527 0.1875,5.59375 3.200049,66.7508 17.775004,117.93042 43.84375,153.375 16.02072,21.78272 36.76095,37.53342 61.65625,46.8125 1.01892,0.37973 1.93081,0.71595 2.625,0.96875 0.3471,0.1264 0.63656,0.23882 0.84375,0.3125 0.10359,0.0368 0.18309,0.0396 0.25,0.0625 0.0335,0.0115 0.0613,0.0208 0.0937,0.0312 0.0324,0.0104 -0.0885,0.008 0.25,0.0625 l 0.0625,0.0312 0.0312,0 c 4.8e-4,5e-5 0.16731,0.002 0.21875,0 0.0514,-0.002 0.0956,0.004 0.125,0 0.0588,-0.007 0.0974,-0.0258 0.125,-0.0312 0.0552,-0.011 0.0673,-0.0243 0.0937,-0.0312 0.053,-0.0139 0.11396,-0.0183 0.15625,-0.0312 0.0846,-0.0258 0.16194,-0.0542 0.28125,-0.0937 0.23862,-0.0791 0.57454,-0.20699 0.96875,-0.34375 0.78842,-0.27351 1.84199,-0.64673 3,-1.0625 10.38867,-3.72992 19.23117,-8.19062 28.53125,-14.4375 14.27862,-9.59095 27.46091,-23.19884 37.59375,-38.8125 18.65165,-28.74028 30.57174,-66.83941 36.125,-115 0.77827,-6.74954 1.66396,-16.55148 2.28125,-24.75 0.30864,-4.09926 0.55059,-7.81404 0.6875,-10.53125 0.0684,-1.35861 0.11634,-2.46518 0.125,-3.28125 0.004,-0.40803 -0.0147,-0.74797 -0.0312,-1.03125 -0.008,-0.14164 -0.004,-0.2475 -0.0312,-0.40625 -0.0272,-0.15875 0.15968,-0.30907 -0.46875,-0.9375 -4e-4,-4e-4 -0.2888,-0.22011 -0.34375,-0.25 -0.055,-0.0299 -0.0697,-0.0517 -0.0937,-0.0625 -0.048,-0.0215 -0.0722,-0.023 -0.0937,-0.0312 -0.043,-0.0165 -0.0912,-0.0196 -0.125,-0.0312 -0.0675,-0.0232 -0.14927,-0.0612 -0.25,-0.0937 -0.20145,-0.0651 -0.4729,-0.16562 -0.84375,-0.28125 -0.74169,-0.23127 -1.83102,-0.54413 -3.21875,-0.96875 -2.77546,-0.84925 -6.76099,-2.07082 -11.6875,-3.5625 -9.85302,-2.98337 -23.4155,-7.08735 -38.3125,-11.5625 l -54.1875,-16.25 -0.4375,-0.125 z m 0,3.125 53.75,16.125 c 14.89528,4.47463 28.46263,8.58009 38.3125,11.5625 4.92493,1.49121 8.91731,2.71486 11.6875,3.5625 1.38509,0.42382 2.45575,0.74058 3.1875,0.96875 0.0821,0.0256 0.11416,0.0395 0.1875,0.0625 -1.3e-4,0.0647 7.6e-4,0.0851 0,0.15625 -0.008,0.74113 -0.0576,1.81918 -0.125,3.15625 -0.13474,2.67415 -0.38008,6.35451 -0.6875,10.4375 -0.61484,8.16597 -1.48042,17.98202 -2.25,24.65625 -5.51782,47.85325 -17.37711,85.47306 -35.6875,113.6875 -9.91966,15.28516 -22.82303,28.635 -36.71875,37.96875 -9.1218,6.12712 -17.69477,10.46992 -27.875,14.125 -1.14953,0.41273 -2.22672,0.79424 -3,1.0625 -0.33487,0.11617 -0.57239,0.21131 -0.78125,0.28125 -0.18715,-0.0669 -0.39604,-0.14386 -0.6875,-0.25 -0.68521,-0.24953 -1.61294,-0.59158 -2.625,-0.96875 -24.3663,-9.08192 -44.58309,-24.43711 -60.28125,-45.78125 -25.56694,-34.7623 -40.067289,-85.36084 -43.25,-151.75 -0.101995,-2.12727 -0.155324,-4.07476 -0.1875,-5.5 -0.01251,-0.55431 -0.03077,-0.94599 -0.03125,-1.3125 0.05077,-0.0159 0.07036,-0.0142 0.125,-0.0312 0.732058,-0.22861 1.833242,-0.54448 3.21875,-0.96875 2.771017,-0.84854 6.76189,-2.07059 11.6875,-3.5625 9.85122,-2.98381 23.41725,-7.08788 38.3125,-11.5625 l 53.71875,-16.125 z m 107.90625,32.53125 c 0.0159,0.005 0.0527,-0.003 0.0625,0 0.0164,0.006 0.0162,0.0375 0,0.0312 -0.008,-0.003 -0.022,-0.0131 -0.0625,-0.0312 z"
       id="path2996"
       inkscape:connector-curvature="0" />
    <path
       style="font-size:medium;font-style:normal;font-variant:normal;font-weight:normal;font-stretch:normal;text-indent:0;text-align:start;text-decoration:none;line-height:normal;letter-spacing:normal;word-spacing:normal;text-transform:none;direction:ltr;block-progression:tb;writing-mode:lr-tb;text-anchor:start;baseline-shift:baseline;color:#000000;fill:#ffffff;fill-opacity:1;fill-rule:nonzero;stroke:none;stroke-width:3;marker:none;visibility:visible;display:inline;overflow:visible;enable-background:accumulate;font-family:Sans;-inkscape-font-specification:Sans"
       d="M 212.5 58.15625 L 212.5 61.3125 C 225.30505 65.261106 238.11597 69.211316 250.96875 72.90625 C 249.96558 88.672184 248.47988 104.42061 246.0625 120 L 249.125 120 C 251.58244 104.05871 253.06492 87.975507 254.0625 71.90625 L 254.125 70.6875 L 252.96875 70.375 C 239.46745 66.512013 225.9871 62.324629 212.5 58.15625 z M 83.875 62.09375 C 65.14596 67.748728 74.321128 64.802815 55.59375 70.46875 L 54.46875 70.8125 L 54.53125 71.96875 C 55.991348 103.9418 60.050729 136.94807 70.28125 167.65625 L 73.4375 167.65625 C 63.233939 137.42802 59.106919 104.78521 57.59375 73 C 75.65493 67.535864 65.811745 70.673847 83.875 65.21875 L 83.875 62.09375 z M 88.5625 208.0625 C 91.610131 213.16761 94.905169 218.14242 98.5 222.96875 L 98.5 223 C 112.61312 241.3522 132.03276 255.72723 153.90625 263.65625 L 154.375 263.84375 L 154.875 263.65625 C 170.24913 258.42602 183.82898 249.87276 195.46875 239.125 L 190.96875 239.125 C 180.3078 248.46826 168.09526 255.93019 154.4375 260.65625 C 133.33004 252.89924 114.56626 238.93685 100.90625 221.1875 C 100.89725 221.1758 100.8837 221.16775 100.875 221.15625 C 97.712048 216.90744 94.794648 212.53946 92.0625 208.0625 L 88.5625 208.0625 z "
       transform="translate(23.787486,723.08116)"
       id="path3804" />
    <g
       transform="matrix(2.3394363,0,0,2.3394363,-108.77773,638.10031)"
       style="font-size:40px;font-style:normal;font-weight:normal;line-height:125%;letter-spacing:0px;word-spacing:0px;fill:#ffffff;fill-opacity:1;stroke:none;font-family:Sans"
       id="flowRoot3766">
      <path
         d="m 99.109375,106.02622 0,-2.07032 3.242185,0 0,-26.249996 -3.437498,0 0,-2.070313 7.031248,0 0,13.320313 c 0.66406,-1.406232 1.52343,-2.467428 2.57813,-3.183594 1.06769,-0.716125 2.30467,-1.074197 3.71094,-1.074219 2.29164,2.2e-5 3.97784,0.657573 5.05859,1.972657 1.08071,1.315122 1.62107,3.365901 1.62109,6.152343 l 0,11.132809 3.20313,0 0,2.07032 -9.92188,0 0,-2.07032 3.10547,0 0,-9.999996 c -2e-5,-2.539048 -0.31252,-4.270817 -0.9375,-5.195313 -0.61199,-0.937481 -1.71225,-1.406231 -3.30078,-1.40625 -1.66668,1.9e-5 -2.93621,0.605487 -3.80859,1.816407 -0.87241,1.210953 -1.30861,2.975274 -1.3086,5.292968 l 0,9.492184 3.125,0 0,2.07032 -9.960935,0"
         style="font-variant:normal;font-stretch:normal;font-family:Bitstream Vera Serif;-inkscape-font-specification:Bitstream Vera Serif;fill:#ffffff"
         id="path3775"
         inkscape:connector-curvature="0" />
      <path
         d="m 144.24609,87.354341 0,24.902349 3.4375,0 0,2.08984 -10.42968,0 0,-2.08984 3.39843,0 0,-9.47266 c -0.70314,1.30208 -1.60157,2.26562 -2.69531,2.89062 -1.08074,0.61198 -2.42189,0.91797 -4.02344,0.91797 -2.55209,0 -4.64193,-1.00911 -6.26953,-3.02734 -1.61458,-2.03125 -2.42187,-4.674473 -2.42187,-7.929689 0,-3.255194 0.80729,-5.89191 2.42187,-7.910156 1.61458,-2.018209 3.70442,-3.027322 6.26953,-3.027344 1.60155,2.2e-5 2.9427,0.312521 4.02344,0.9375 1.09374,0.611999 1.99217,1.56903 2.69531,2.871094 l 0,-3.242187 7.03125,0 0,2.089843 -3.4375,0 m -3.59375,7.265625 c -1e-5,-2.486965 -0.48178,-4.388005 -1.44531,-5.703125 -0.95053,-1.315085 -2.33725,-1.972637 -4.16016,-1.972656 -1.84896,1.9e-5 -3.2487,0.729185 -4.19921,2.1875 -0.93751,1.458349 -1.40626,3.626316 -1.40625,6.503906 -1e-5,2.864591 0.46874,5.032559 1.40625,6.503909 0.95051,1.47135 2.35025,2.20703 4.19921,2.20703 1.82291,0 3.20963,-0.65104 4.16016,-1.95313 0.96353,-1.3151 1.4453,-3.222645 1.44531,-5.722652 l 0,-2.050782"
         style="font-variant:normal;font-stretch:normal;font-family:Bitstream Vera Serif;-inkscape-font-specification:Bitstream Vera Serif;fill:#ffffff"
         id="path3777"
         inkscape:connector-curvature="0" />
    </g>
  </g>
</svg>
